<?xml version="1.0" encoding="UTF-8" standalone="no"?>
<!DOCTYPE svg PUBLIC "-//W3C//DTD SVG 1.1//EN"
 "http://www.w3.org/Graphics/SVG/1.1/DTD/svg11.dtd">
<!-- Generated by graphviz version 8.1.0 (20230707.0739)
 -->
<!-- Pages: 1 -->
<svg width="884pt" height="548pt"
 viewBox="0.00 0.00 884.37 548.00" xmlns="http://www.w3.org/2000/svg" xmlns:xlink="http://www.w3.org/1999/xlink">
<g id="graph0" class="graph" transform="scale(1 1) rotate(0) translate(4 544)">
<polygon fill="white" stroke="none" points="-4,4 -4,-544 880.37,-544 880.37,4 -4,4"/>
<!-- [root] aws_autoscaling_group.example (expand) -->
<g id="node1" class="node">
<title>[root] aws_autoscaling_group.example (expand)</title>
<polygon fill="none" stroke="black" points="656.49,-252 462.74,-252 462.74,-216 656.49,-216 656.49,-252"/>
<text text-anchor="middle" x="559.62" y="-228.95" font-family="Times,serif" font-size="14.00">aws_autoscaling_group.example</text>
</g>
<!-- [root] aws_launch_configuration.example (expand) -->
<g id="node2" class="node">
<title>[root] aws_launch_configuration.example (expand)</title>
<polygon fill="none" stroke="black" points="876.37,-180 666.87,-180 666.87,-144 876.37,-144 876.37,-180"/>
<text text-anchor="middle" x="771.62" y="-156.95" font-family="Times,serif" font-size="14.00">aws_launch_configuration.example</text>
</g>
<!-- [root] aws_autoscaling_group.example (expand)&#45;&gt;[root] aws_launch_configuration.example (expand) -->
<g id="edge1" class="edge">
<title>[root] aws_autoscaling_group.example (expand)&#45;&gt;[root] aws_launch_configuration.example (expand)</title>
<path fill="none" stroke="black" d="M612.57,-215.52C641.77,-205.88 678.2,-193.84 708.83,-183.73"/>
<polygon fill="black" stroke="black" points="709.58,-186.84 717.98,-180.38 707.38,-180.19 709.58,-186.84"/>
</g>
<!-- [root] aws_lb_target_group.asg_target_group (expand) -->
<g id="node6" class="node">
<title>[root] aws_lb_target_group.asg_target_group (expand)</title>
<polygon fill="none" stroke="black" points="648.37,-180 420.87,-180 420.87,-144 648.37,-144 648.37,-180"/>
<text text-anchor="middle" x="534.62" y="-156.95" font-family="Times,serif" font-size="14.00">aws_lb_target_group.asg_target_group</text>
</g>
<!-- [root] aws_autoscaling_group.example (expand)&#45;&gt;[root] aws_lb_target_group.asg_target_group (expand) -->
<g id="edge2" class="edge">
<title>[root] aws_autoscaling_group.example (expand)&#45;&gt;[root] aws_lb_target_group.asg_target_group (expand)</title>
<path fill="none" stroke="black" d="M553.44,-215.7C550.71,-208.07 547.45,-198.92 544.4,-190.4"/>
<polygon fill="black" stroke="black" points="547.39,-189.34 540.73,-181.1 540.79,-191.7 547.39,-189.34"/>
</g>
<!-- [root] data.aws_subnets.default_subnets (expand) -->
<g id="node9" class="node">
<title>[root] data.aws_subnets.default_subnets (expand)</title>
<polygon fill="none" stroke="black" points="403.12,-180 204.12,-180 204.12,-144 403.12,-144 403.12,-180"/>
<text text-anchor="middle" x="303.62" y="-156.95" font-family="Times,serif" font-size="14.00">data.aws_subnets.default_subnets</text>
</g>
<!-- [root] aws_autoscaling_group.example (expand)&#45;&gt;[root] data.aws_subnets.default_subnets (expand) -->
<g id="edge3" class="edge">
<title>[root] aws_autoscaling_group.example (expand)&#45;&gt;[root] data.aws_subnets.default_subnets (expand)</title>
<path fill="none" stroke="black" d="M495.68,-215.52C459.81,-205.71 414.89,-193.43 377.51,-183.21"/>
<polygon fill="black" stroke="black" points="378.76,-179.64 368.19,-180.38 376.91,-186.4 378.76,-179.64"/>
</g>
<!-- [root] aws_security_group.instance (expand) -->
<g id="node8" class="node">
<title>[root] aws_security_group.instance (expand)</title>
<polygon fill="none" stroke="black" points="787.99,-108 615.24,-108 615.24,-72 787.99,-72 787.99,-108"/>
<text text-anchor="middle" x="701.62" y="-84.95" font-family="Times,serif" font-size="14.00">aws_security_group.instance</text>
</g>
<!-- [root] aws_launch_configuration.example (expand)&#45;&gt;[root] aws_security_group.instance (expand) -->
<g id="edge4" class="edge">
<title>[root] aws_launch_configuration.example (expand)&#45;&gt;[root] aws_security_group.instance (expand)</title>
<path fill="none" stroke="black" d="M754.32,-143.7C745.92,-135.3 735.69,-125.07 726.48,-115.86"/>
<polygon fill="black" stroke="black" points="729.27,-113.7 719.72,-109.1 724.32,-118.65 729.27,-113.7"/>
</g>
<!-- [root] aws_lb.example (expand) -->
<g id="node3" class="node">
<title>[root] aws_lb.example (expand)</title>
<polygon fill="none" stroke="black" points="251.87,-252 147.37,-252 147.37,-216 251.87,-216 251.87,-252"/>
<text text-anchor="middle" x="199.62" y="-228.95" font-family="Times,serif" font-size="14.00">aws_lb.example</text>
</g>
<!-- [root] aws_security_group.alb_security_group (expand) -->
<g id="node7" class="node">
<title>[root] aws_security_group.alb_security_group (expand)</title>
<polygon fill="none" stroke="black" points="291.99,-108 59.24,-108 59.24,-72 291.99,-72 291.99,-108"/>
<text text-anchor="middle" x="175.62" y="-84.95" font-family="Times,serif" font-size="14.00">aws_security_group.alb_security_group</text>
</g>
<!-- [root] aws_lb.example (expand)&#45;&gt;[root] aws_security_group.alb_security_group (expand) -->
<g id="edge5" class="edge">
<title>[root] aws_lb.example (expand)&#45;&gt;[root] aws_security_group.alb_security_group (expand)</title>
<path fill="none" stroke="black" d="M196.68,-215.59C192.59,-191.4 185.14,-147.36 180.29,-118.65"/>
<polygon fill="black" stroke="black" points="183.63,-118.39 178.51,-109.11 176.73,-119.55 183.63,-118.39"/>
</g>
<!-- [root] aws_lb.example (expand)&#45;&gt;[root] data.aws_subnets.default_subnets (expand) -->
<g id="edge6" class="edge">
<title>[root] aws_lb.example (expand)&#45;&gt;[root] data.aws_subnets.default_subnets (expand)</title>
<path fill="none" stroke="black" d="M225.59,-215.52C238.72,-206.68 254.83,-195.84 269,-186.3"/>
<polygon fill="black" stroke="black" points="270.63,-188.75 276.97,-180.26 266.72,-182.94 270.63,-188.75"/>
</g>
<!-- [root] aws_lb_listener.http (expand) -->
<g id="node4" class="node">
<title>[root] aws_lb_listener.http (expand)</title>
<polygon fill="none" stroke="black" points="373.99,-324 249.24,-324 249.24,-288 373.99,-288 373.99,-324"/>
<text text-anchor="middle" x="311.62" y="-300.95" font-family="Times,serif" font-size="14.00">aws_lb_listener.http</text>
</g>
<!-- [root] aws_lb_listener.http (expand)&#45;&gt;[root] aws_lb.example (expand) -->
<g id="edge7" class="edge">
<title>[root] aws_lb_listener.http (expand)&#45;&gt;[root] aws_lb.example (expand)</title>
<path fill="none" stroke="black" d="M283.65,-287.52C269.37,-278.6 251.83,-267.63 236.47,-258.03"/>
<polygon fill="black" stroke="black" points="238.57,-254.59 228.24,-252.26 234.86,-260.53 238.57,-254.59"/>
</g>
<!-- [root] aws_lb_listener_rule.lb_listener_rule (expand) -->
<g id="node5" class="node">
<title>[root] aws_lb_listener_rule.lb_listener_rule (expand)</title>
<polygon fill="none" stroke="black" points="534.12,-396 317.12,-396 317.12,-360 534.12,-360 534.12,-396"/>
<text text-anchor="middle" x="425.62" y="-372.95" font-family="Times,serif" font-size="14.00">aws_lb_listener_rule.lb_listener_rule</text>
</g>
<!-- [root] aws_lb_listener_rule.lb_listener_rule (expand)&#45;&gt;[root] aws_lb_listener.http (expand) -->
<g id="edge8" class="edge">
<title>[root] aws_lb_listener_rule.lb_listener_rule (expand)&#45;&gt;[root] aws_lb_listener.http (expand)</title>
<path fill="none" stroke="black" d="M397.15,-359.52C382.48,-350.51 364.42,-339.42 348.68,-329.76"/>
<polygon fill="black" stroke="black" points="351.08,-326.51 340.73,-324.26 347.42,-332.48 351.08,-326.51"/>
</g>
<!-- [root] aws_lb_listener_rule.lb_listener_rule (expand)&#45;&gt;[root] aws_lb_target_group.asg_target_group (expand) -->
<g id="edge9" class="edge">
<title>[root] aws_lb_listener_rule.lb_listener_rule (expand)&#45;&gt;[root] aws_lb_target_group.asg_target_group (expand)</title>
<path fill="none" stroke="black" d="M424.36,-359.89C422.91,-328.61 423.84,-261.27 453.62,-216 461.57,-203.92 473.32,-193.97 485.43,-186.08"/>
<polygon fill="black" stroke="black" points="486.97,-188.64 493.7,-180.46 483.34,-182.65 486.97,-188.64"/>
</g>
<!-- [root] data.aws_vpc.default_vpc (expand) -->
<g id="node10" class="node">
<title>[root] data.aws_vpc.default_vpc (expand)</title>
<polygon fill="none" stroke="black" points="467.12,-108 310.12,-108 310.12,-72 467.12,-72 467.12,-108"/>
<text text-anchor="middle" x="388.62" y="-84.95" font-family="Times,serif" font-size="14.00">data.aws_vpc.default_vpc</text>
</g>
<!-- [root] aws_lb_target_group.asg_target_group (expand)&#45;&gt;[root] data.aws_vpc.default_vpc (expand) -->
<g id="edge10" class="edge">
<title>[root] aws_lb_target_group.asg_target_group (expand)&#45;&gt;[root] data.aws_vpc.default_vpc (expand)</title>
<path fill="none" stroke="black" d="M498.15,-143.52C478.92,-134.29 455.12,-122.89 434.63,-113.06"/>
<polygon fill="black" stroke="black" points="436.4,-109.55 425.87,-108.38 433.38,-115.86 436.4,-109.55"/>
</g>
<!-- [root] var.server_port -->
<g id="node12" class="node">
<title>[root] var.server_port</title>
<polygon fill="none" stroke="black" points="744.49,-36 652.74,-36 652.74,0 750.49,0 750.49,-30 744.49,-36"/>
<polyline fill="none" stroke="black" points="744.49,-36 744.49,-30"/>
<polyline fill="none" stroke="black" points="750.49,-30 744.49,-30"/>
<text text-anchor="middle" x="701.62" y="-12.95" font-family="Times,serif" font-size="14.00">var.server_port</text>
</g>
<!-- [root] aws_lb_target_group.asg_target_group (expand)&#45;&gt;[root] var.server_port -->
<g id="edge11" class="edge">
<title>[root] aws_lb_target_group.asg_target_group (expand)&#45;&gt;[root] var.server_port</title>
<path fill="none" stroke="black" d="M545.7,-143.61C558.6,-124.36 581.38,-93.25 606.62,-72 620.62,-60.22 637.63,-49.76 653.37,-41.31"/>
<polygon fill="black" stroke="black" points="654.71,-44.04 661.96,-36.32 651.47,-37.83 654.71,-44.04"/>
</g>
<!-- [root] provider[&quot;registry.terraform.io/hashicorp/aws&quot;] -->
<g id="node11" class="node">
<title>[root] provider[&quot;registry.terraform.io/hashicorp/aws&quot;]</title>
<polygon fill="none" stroke="black" points="370.62,-36 106.19,-18 370.62,0 635.05,-18 370.62,-36"/>
<text text-anchor="middle" x="370.62" y="-12.95" font-family="Times,serif" font-size="14.00">provider[&quot;registry.terraform.io/hashicorp/aws&quot;]</text>
</g>
<!-- [root] aws_security_group.alb_security_group (expand)&#45;&gt;[root] provider[&quot;registry.terraform.io/hashicorp/aws&quot;] -->
<g id="edge12" class="edge">
<title>[root] aws_security_group.alb_security_group (expand)&#45;&gt;[root] provider[&quot;registry.terraform.io/hashicorp/aws&quot;]</title>
<path fill="none" stroke="black" d="M224.32,-71.52C253.38,-61.08 290.24,-47.85 319.69,-37.28"/>
<polygon fill="black" stroke="black" points="320.54,-40.34 328.77,-33.66 318.18,-33.75 320.54,-40.34"/>
</g>
<!-- [root] aws_security_group.instance (expand)&#45;&gt;[root] provider[&quot;registry.terraform.io/hashicorp/aws&quot;] -->
<g id="edge13" class="edge">
<title>[root] aws_security_group.instance (expand)&#45;&gt;[root] provider[&quot;registry.terraform.io/hashicorp/aws&quot;]</title>
<path fill="none" stroke="black" d="M618.95,-71.52C565.03,-60.11 495.3,-45.37 443.46,-34.41"/>
<polygon fill="black" stroke="black" points="444.52,-30.84 434.02,-32.2 443.07,-37.69 444.52,-30.84"/>
</g>
<!-- [root] aws_security_group.instance (expand)&#45;&gt;[root] var.server_port -->
<g id="edge14" class="edge">
<title>[root] aws_security_group.instance (expand)&#45;&gt;[root] var.server_port</title>
<path fill="none" stroke="black" d="M701.62,-71.7C701.62,-64.24 701.62,-55.32 701.62,-46.97"/>
<polygon fill="black" stroke="black" points="705.12,-47.1 701.62,-37.1 698.12,-47.1 705.12,-47.1"/>
</g>
<!-- [root] data.aws_subnets.default_subnets (expand)&#45;&gt;[root] data.aws_vpc.default_vpc (expand) -->
<g id="edge15" class="edge">
<title>[root] data.aws_subnets.default_subnets (expand)&#45;&gt;[root] data.aws_vpc.default_vpc (expand)</title>
<path fill="none" stroke="black" d="M324.63,-143.7C335.05,-135.11 347.81,-124.61 359.19,-115.24"/>
<polygon fill="black" stroke="black" points="361.06,-117.41 366.55,-108.35 356.61,-112 361.06,-117.41"/>
</g>
<!-- [root] data.aws_vpc.default_vpc (expand)&#45;&gt;[root] provider[&quot;registry.terraform.io/hashicorp/aws&quot;] -->
<g id="edge16" class="edge">
<title>[root] data.aws_vpc.default_vpc (expand)&#45;&gt;[root] provider[&quot;registry.terraform.io/hashicorp/aws&quot;]</title>
<path fill="none" stroke="black" d="M384.17,-71.7C382.23,-64.15 379.91,-55.12 377.74,-46.68"/>
<polygon fill="black" stroke="black" points="380.9,-45.92 375.02,-37.1 374.12,-47.66 380.9,-45.92"/>
</g>
<!-- [root] output.alb_dns_name (expand) -->
<g id="node13" class="node">
<title>[root] output.alb_dns_name (expand)</title>
<ellipse fill="none" stroke="black" cx="149.62" cy="-378" rx="149.62" ry="18"/>
<text text-anchor="middle" x="149.62" y="-372.95" font-family="Times,serif" font-size="14.00">[root] output.alb_dns_name (expand)</text>
</g>
<!-- [root] output.alb_dns_name (expand)&#45;&gt;[root] aws_lb.example (expand) -->
<g id="edge17" class="edge">
<title>[root] output.alb_dns_name (expand)&#45;&gt;[root] aws_lb.example (expand)</title>
<path fill="none" stroke="black" d="M155.75,-359.59C164.31,-335.29 179.91,-290.97 190.02,-262.27"/>
<polygon fill="black" stroke="black" points="193.57,-263.71 193.59,-253.11 186.97,-261.38 193.57,-263.71"/>
</g>
<!-- [root] provider[&quot;registry.terraform.io/hashicorp/aws&quot;] (close) -->
<g id="node14" class="node">
<title>[root] provider[&quot;registry.terraform.io/hashicorp/aws&quot;] (close)</title>
<ellipse fill="none" stroke="black" cx="425.62" cy="-450" rx="238.16" ry="18"/>
<text text-anchor="middle" x="425.62" y="-444.95" font-family="Times,serif" font-size="14.00">[root] provider[&quot;registry.terraform.io/hashicorp/aws&quot;] (close)</text>
</g>
<!-- [root] provider[&quot;registry.terraform.io/hashicorp/aws&quot;] (close)&#45;&gt;[root] aws_autoscaling_group.example (expand) -->
<g id="edge18" class="edge">
<title>[root] provider[&quot;registry.terraform.io/hashicorp/aws&quot;] (close)&#45;&gt;[root] aws_autoscaling_group.example (expand)</title>
<path fill="none" stroke="black" d="M493.68,-432.39C512.71,-424.46 531.48,-412.86 543.62,-396 571.78,-356.88 569.37,-297.86 564.73,-263.2"/>
<polygon fill="black" stroke="black" points="568.06,-262.81 563.11,-253.45 561.14,-263.86 568.06,-262.81"/>
</g>
<!-- [root] provider[&quot;registry.terraform.io/hashicorp/aws&quot;] (close)&#45;&gt;[root] aws_lb_listener_rule.lb_listener_rule (expand) -->
<g id="edge19" class="edge">
<title>[root] provider[&quot;registry.terraform.io/hashicorp/aws&quot;] (close)&#45;&gt;[root] aws_lb_listener_rule.lb_listener_rule (expand)</title>
<path fill="none" stroke="black" d="M425.62,-431.7C425.62,-424.24 425.62,-415.32 425.62,-406.97"/>
<polygon fill="black" stroke="black" points="429.12,-407.1 425.62,-397.1 422.12,-407.1 429.12,-407.1"/>
</g>
<!-- [root] root -->
<g id="node15" class="node">
<title>[root] root</title>
<ellipse fill="none" stroke="black" cx="287.62" cy="-522" rx="49.3" ry="18"/>
<text text-anchor="middle" x="287.62" y="-516.95" font-family="Times,serif" font-size="14.00">[root] root</text>
</g>
<!-- [root] root&#45;&gt;[root] output.alb_dns_name (expand) -->
<g id="edge20" class="edge">
<title>[root] root&#45;&gt;[root] output.alb_dns_name (expand)</title>
<path fill="none" stroke="black" d="M248.78,-510.58C225.49,-502.48 196.93,-489.02 178.62,-468 163.79,-450.97 156.51,-426.21 152.96,-407.13"/>
<polygon fill="black" stroke="black" points="156.27,-406.69 151.23,-397.37 149.36,-407.8 156.27,-406.69"/>
</g>
<!-- [root] root&#45;&gt;[root] provider[&quot;registry.terraform.io/hashicorp/aws&quot;] (close) -->
<g id="edge21" class="edge">
<title>[root] root&#45;&gt;[root] provider[&quot;registry.terraform.io/hashicorp/aws&quot;] (close)</title>
<path fill="none" stroke="black" d="M315.54,-506.83C334.6,-497.17 360.23,-484.17 381.96,-473.15"/>
<polygon fill="black" stroke="black" points="383.3,-475.89 390.63,-468.24 380.13,-469.64 383.3,-475.89"/>
</g>
</g>
</svg>
